<svg width="567" height="547" viewBox="0 0 567 547" fill="none" xmlns="http://www.w3.org/2000/svg">
<path d="M282.688 0.562506C283.78 0.565215 284.872 0.567924 285.998 0.570715C302.644 0.63321 318.69 1.40152 335 5.00001C336.425 5.30479 336.425 5.30479 337.878 5.61573C343.188 6.76849 348.459 8.03273 353.716 9.40626C355.876 9.96765 358.039 10.5032 360.207 11.0313C368.175 13.0334 375.518 15.6286 383 19C384.507 19.6572 386.015 20.3134 387.523 20.9688C406.282 29.1852 424.151 38.3518 440.57 50.6641C441.148 51.0881 441.726 51.5121 442.321 51.949C443.893 53.1089 445.447 54.2938 447 55.4805C450.934 57.473 452.718 56.9427 457 56C458.701 55.7359 460.405 55.4857 462.109 55.2461C463.03 55.114 463.95 54.9818 464.898 54.8457C465.839 54.711 466.78 54.5763 467.75 54.4375C468.676 54.2989 469.601 54.1604 470.555 54.0176C488.498 51.481 488.498 51.481 494 55C495.012 57.1016 495.012 57.1016 495.688 59.625C495.918 60.4423 496.149 61.2595 496.387 62.1016C497.675 68.1899 498.029 73.646 497.789 79.8594C497.279 97.7241 499.554 108.276 512.08 121.841C514.952 125.07 517.309 128.548 519.625 132.188C520.054 132.858 520.484 133.529 520.926 134.22C530.715 149.898 538.93 166.547 545 184C545.226 184.63 545.452 185.26 545.684 185.909C551.735 202.788 558 221.916 558 240C569.574 240 569.709 256 559 256C559.016 257.494 559.016 257.494 559.032 259.019C559.383 295.758 559.383 295.758 557.385 307.688C557.103 309.383 556.841 311.081 556.592 312.78C552.56 340.084 544.493 367.346 532 392C531.626 392.766 531.252 393.531 530.866 394.32C520.261 416.018 506.393 436.041 490.023 453.789C488.244 455.733 486.559 457.724 484.875 459.75C442.189 508.704 371.9 540.345 307.825 545.584C284.827 547.044 261.751 546.803 239 543C237.61 542.792 236.219 542.585 234.828 542.379C222.603 540.371 210.809 536.678 199 533C197.732 532.614 197.732 532.614 196.438 532.22C165.949 522.834 136.33 506.557 112 486C110.91 485.099 109.818 484.2 108.727 483.301C98.8912 475.149 88.8412 466.781 80.6445 456.949C79.4933 455.585 78.2988 454.256 77.0742 452.957C60.1492 434.98 46.3895 413.335 36 391C35.6758 390.322 35.3516 389.644 35.0176 388.946C17.6025 352.478 8.6973 311.584 8.93749 271.25C8.94252 269.763 8.94708 268.276 8.95116 266.789C8.96204 263.193 8.97922 259.596 8.99999 256C-2.12533 254.143 -1.59576 239.519 9.99999 240C10.0748 239.196 10.1495 238.391 10.2266 237.562C13.7824 205.769 24.7398 172.581 41 145C41.872 143.519 41.872 143.519 42.7617 142.008C47.2721 134.524 52.1169 127.296 57.0937 120.117C57.5383 119.462 57.9829 118.807 58.4409 118.132C60 116 60 116 62.0942 113.653C68.9734 105.534 69.0827 98.2286 68.875 88.125C68.8569 85.19 68.8597 82.2553 68.8672 79.3203C68.8666 78.6123 68.866 77.9043 68.8654 77.1749C68.9116 69.3937 69.0955 60.9051 73 54C100.863 53.7522 113.5 56.8309 109.312 56.125C113.847 57.2009 117.628 57.3914 121.789 54.9502C123.702 53.5433 125.54 52.0701 127.375 50.5625C135.509 44.1982 143.955 38.9634 153 34C153.876 33.515 154.752 33.03 155.654 32.5303C194.964 10.9013 237.885 0.300593 282.688 0.562506Z" fill="#3B1713"/>
<path d="M88 74C122.289 76.5455 157.692 87.4403 181.25 113.688C182.031 114.652 182.031 114.652 182.828 115.637C186.383 117.868 189.925 117.532 194 117C196.658 116.081 198.989 115.142 201.5 113.938C253.46 90.9466 313.926 95.4179 366 115C366.879 115.357 367.759 115.715 368.665 116.083C372.543 117.606 375.917 117.854 380 117C385.163 114.151 389.066 109.949 393.062 105.688C402.302 96.2386 414.915 89.9827 427 85C428.261 84.4683 428.261 84.4683 429.547 83.9258C445.118 77.8086 461.337 74.7745 478 75C479.352 135.943 479.352 135.943 472 158C471.34 158 470.68 158 470 158C468.75 156.423 467.576 154.785 466.438 153.125C457.357 140.314 445.54 127.195 432 119C435.363 115.147 439.04 113.189 443.562 111C444.268 110.653 444.973 110.305 445.699 109.947C451.327 107.221 457.045 104.918 463 103C463 100.36 463 97.72 463 95C458.446 92.723 452.565 94.4835 447.955 96.0049C444.664 97.3088 441.424 98.6931 438.188 100.125C437.043 100.621 435.899 101.116 434.721 101.627C421.472 106.908 421.472 106.908 410 115C409.803 119.14 409.692 122.077 411 126C412.304 126.722 413.646 127.375 415 128C436.95 142.256 457.202 167.172 468 191C468.278 191.613 468.557 192.226 468.843 192.858C481.748 221.853 486.3 256.645 476 287C475.689 288.017 475.379 289.034 475.059 290.082C470.911 302.784 464.033 314.218 455 324C454.497 324.545 453.995 325.09 453.477 325.652C445.114 334.617 436.207 342.217 426 349C425.433 349.379 424.866 349.759 424.282 350.149C408.015 360.855 389.684 369.458 371.129 375.313C369.519 375.832 367.917 376.378 366.32 376.935C358.884 379.511 351.445 381.429 343.75 383.062C342.67 383.305 341.59 383.548 340.477 383.799C320.518 388.084 300.564 389.559 280.188 389.438C279.099 389.434 278.011 389.431 276.889 389.428C260.273 389.36 244.275 388.612 228 385C226.509 384.687 226.509 384.687 224.988 384.367C194.187 377.785 165.12 365.621 139 348C138.046 347.371 137.092 346.742 136.109 346.094C117.651 333.356 104.089 317.405 95 297C94.5166 295.931 94.0332 294.863 93.5352 293.762C80.9733 263.712 83.7844 227.378 95.75 197.516C107.79 168.832 125.329 144.868 151.086 127.039C153.967 125.149 153.967 125.149 156 123C156.519 119.068 156.657 116.884 154.25 113.645C149.845 109.537 143.991 107.424 138.563 105C137.394 104.472 136.226 103.944 135.022 103.399C119.642 95.8657 103.5 90 103 94C102.5 98 103 99.94 103 103C103.584 103.246 104.168 103.493 104.769 103.747C107.472 104.89 110.174 106.039 112.875 107.188C113.793 107.575 114.711 107.962 115.656 108.361C121.893 111.018 127.973 113.898 134 117C134 117.66 134 118.32 134 119C132.114 120.527 130.215 121.956 128.25 123.375C117.611 131.336 109.014 140.501 101.156 151.188C99.2452 153.68 97.2784 155.846 95 158C91.9782 145.033 89.9743 132.279 89 119C88.9422 118.238 88.8843 117.476 88.8247 116.69C87.7899 102.473 87.8916 88.247 88 74Z" fill="#FBFCFC"/>
<path d="M377 394C377.352 405.115 377.739 419.049 376.283 432.5C374.15 452.193 364.887 475.173 356 493C355.302 494.422 354.604 495.844 353.906 497.266C348.607 508.003 349.783 506.784 347 511.5C345.526 514.151 344.5 517.5 343 520C304.983 528.148 261.75 532.583 224 520C222.501 517.725 222.501 517.725 220.926 514.699C220.344 513.587 219.763 512.474 219.164 511.328C218.546 510.115 217.929 508.902 217.312 507.688C216.843 506.771 216.843 506.771 216.364 505.835C200.776 475.351 189.681 441.514 189.937 407C189.942 405.844 189.947 404.687 189.951 403.496C189.963 400.664 189.979 397.832 190 395C196.397 395.997 202.657 397.035 208.875 398.875C215.184 400.609 221.501 401.95 227.937 403.125C228.794 403.283 229.65 403.442 230.533 403.605C233.35 404.105 236.172 404.559 239 405C240.106 405.181 241.212 405.362 242.351 405.548C255.093 407.409 267.831 407.397 280.687 407.375C281.864 407.374 283.041 407.374 284.254 407.373C302.168 407.335 319.414 406.67 337 403C338.748 402.639 338.748 402.639 340.531 402.27C350.755 400.109 360.894 397.785 370.837 394.553C373 394 373 394 377 394Z" fill="#FBFCFC"/>
<path d="M423 61C424.362 62.3041 425.704 63.63 427 65C426.066 65.35 426.066 65.35 425.113 65.707C409.193 71.9907 394.439 79.9869 381.055 90.6641C381.055 90.6641 380.5 91.5 375 96C371.231 97.4211 369.291 96.5319 365.688 94.9375C316.474 75.1644 251.753 74.3995 202.375 93.875C201.434 94.2849 200.493 94.6949 199.523 95.1172C196.65 96.1223 195.013 96.5152 192 96C189.74 94.4458 187.754 92.9038 185.688 91.125C172.54 80.3637 156.787 69.8671 140 66C140 65.34 140 64.68 140 64C142.303 62.3802 144.596 60.8947 147 59.4375C147.723 58.9942 148.447 58.551 149.192 58.0942C151.454 56.7173 153.725 55.3558 156 54C156.673 53.5977 157.345 53.1953 158.038 52.7808C239.163 4.63704 341.599 9.27906 423 61Z" fill="#FC8847"/>
<path d="M500 256C513.53 256 527.06 256 541 256C542.314 327.264 521.403 394.533 471.312 446.598C470.209 447.732 469.105 448.866 468 450C467.504 450.517 467.007 451.034 466.496 451.566C458.743 459.638 450.676 467.29 441 473C441.031 471.363 441.031 471.363 441.063 469.693C441.727 439.607 441.727 439.607 437 410C436.663 408.647 436.663 408.647 436.318 407.267C433.651 396.782 430.387 386.785 425.906 376.934C425 374 425 374 425.484 371.82C427.579 369.304 429.9 368.047 432.75 366.438C451.814 355.184 472.753 337.59 482 317C486.877 317.62 490.758 319.708 495.062 321.938C495.77 322.298 496.477 322.658 497.205 323.029C502.613 325.787 502.613 325.787 505.238 327.234C517.025 332.357 521.489 319.487 509.629 313.941C508.807 313.555 507.985 313.169 507.139 312.771C505.426 311.968 503.712 311.166 501.998 310.365C497.868 308.422 493.855 306.462 490 304C490.541 299.672 491.668 295.948 493.281 291.93C494.01 289.974 494.53 288.032 495 286C505.072 287.712 505.072 287.712 509.625 289.125C522.24 292.396 532.881 283.353 516.302 277C511.51 275.164 506.296 273.987 504.195 273.613C501 273 501 273 499 272C499.33 266.72 499.66 261.44 500 256Z" fill="#FC8847"/>
<path d="M28 256C40.87 256 53.74 256 67 256C67.495 263.92 67.495 263.92 68 272C65.9214 272.489 65.9214 272.489 63.8008 272.988C61.9712 273.429 60.1418 273.871 58.3125 274.312C57.4005 274.526 56.4885 274.739 55.5488 274.959C34.5238 279.771 45.5002 292.925 62.8515 286.875C66.056 285.984 68.6927 285.841 72 286C72.8388 288.436 73.6712 290.873 74.5 293.312C74.7385 294.003 74.9769 294.693 75.2226 295.404C76.2321 298.389 77 300.827 77 304C76.2531 304.348 75.5063 304.696 74.7368 305.054C71.3621 306.631 67.9935 308.222 64.625 309.812C63.4494 310.36 62.2737 310.907 61.0625 311.471C59.941 312.002 58.8195 312.534 57.664 313.082C56.1087 313.813 56.1087 313.813 54.5219 314.558C44.2262 319.52 53.8731 331.169 64.2578 325.559C65.213 325.058 66.1682 324.557 67.1523 324.041C68.1333 323.512 69.1143 322.983 70.125 322.438C72.08 321.384 74.0408 320.34 76.0078 319.309C76.8703 318.843 77.7329 318.376 78.6216 317.896C81.3194 316.88 82.3862 316.84 85 318C87.0429 320.59 87.0429 320.59 89.1875 323.938C92.7412 329.333 96.5924 334.127 101.012 338.859C102.619 340.589 104.104 342.334 105.562 344.188C114.989 355.064 128.976 365.873 142 372C141.447 375.775 140.219 378.989 138.677 382.467C135.574 389.483 133.107 396.493 131.25 403.938C131.064 404.674 130.878 405.41 130.687 406.168C130.068 408.77 129.526 411.378 129 414C128.736 415.285 128.472 416.57 128.2 417.895C125.921 429.694 125.639 441.138 125.812 453.125C125.828 454.97 125.841 456.815 125.853 458.66C125.886 463.107 125.937 467.553 126 472C108.905 463.689 93.1879 445.063 82 430C81.3699 429.169 81.3699 429.169 80.727 428.32C41.7732 376.915 27.1912 319.895 28 256Z" fill="#FC8847"/>
<path d="M478 225C478.33 225 478.66 225 479 225C482.282 246.039 482.896 266.677 476 287C475.689 288.017 475.379 289.034 475.059 290.082C470.911 302.784 464.033 314.218 455 324C454.497 324.545 453.995 325.09 453.477 325.652C445.114 334.617 436.207 342.217 426 349C425.149 349.569 425.149 349.569 424.282 350.149C408.015 360.855 389.684 369.458 371.129 375.313C369.519 375.832 367.917 376.378 366.32 376.935C358.884 379.511 351.445 381.429 343.75 383.062C342.67 383.305 341.59 383.548 340.477 383.799C320.518 388.084 300.564 389.559 280.187 389.438C279.099 389.434 278.011 389.431 276.889 389.428C260.273 389.36 244.275 388.612 228 385C226.509 384.687 226.509 384.687 224.988 384.367C194.187 377.785 165.12 365.621 139 348C137.569 347.056 137.569 347.056 136.109 346.094C117.651 333.356 104.089 317.405 95 297C94.5166 295.931 94.0332 294.863 93.5351 293.762C85.2174 273.865 84.5585 253.188 87 232C87.33 232 87.66 232 88 232C88.098 233.27 88.1959 234.539 88.2969 235.848C90.8676 266.505 102.444 291.774 125 313C131.421 318.41 138.192 323.402 144.812 328.562C151.814 333.762 159.322 337.891 167 342C168.584 342.855 168.584 342.855 170.199 343.727C177.576 347.568 185.126 350.368 193 353C193 353.66 206.761 357.339 206.761 358.019C208.205 358.179 194.444 355.16 195.918 355.324C199.668 355.86 203.152 356.891 206.761 358.019C218.887 361.792 231.082 363.902 243.657 365.558C245.996 365.867 248.333 366.197 250.667 366.542C261.303 368.034 271.769 368.358 282.5 368.312C283.813 368.31 283.813 368.31 285.153 368.308C299.301 368.265 313.04 367.421 327 365C328.721 364.73 330.443 364.46 332.164 364.191C359.317 359.703 385.811 350.789 409.57 336.906C421.389 330.338 429.457 323.064 439.312 315.125C448.165 307.576 455.742 298.796 462 289C462.534 288.166 463.067 287.332 463.617 286.473C468.708 278.254 472.063 270.218 474.688 260.938C474.902 260.181 475.117 259.425 475.338 258.646C477.589 250.379 478.148 242.528 478.062 234C478.056 232.695 478.056 232.695 478.049 231.363C478.037 229.242 478.019 227.121 478 225Z" fill="#B3B7CE"/>
<path d="M377 394C377.029 398.208 377.047 402.417 377.063 406.625C377.071 407.815 377.079 409.005 377.088 410.23C377.091 411.384 377.094 412.538 377.098 413.727C377.103 414.784 377.108 415.842 377.114 416.932C376.999 420.034 376.577 422.953 376 426C375.67 425.34 375.34 424.68 375 424C374.196 424.268 373.391 424.536 372.563 424.812C370.739 425.42 368.916 426.027 367.09 426.625C366.4 426.852 365.711 427.079 365 427.312C364.214 427.57 363.427 427.828 362.617 428.094C360.815 428.718 359.029 429.387 357.258 430.094C349.196 433.23 341.056 435.293 332.625 437.188C331.527 437.437 330.429 437.687 329.297 437.945C313.975 441.282 299.125 442.382 283.5 442.312C282.624 442.31 281.747 442.308 280.844 442.306C251.767 442.192 224.217 437.645 197.313 426.25C196.298 425.822 195.284 425.394 194.238 424.953C193.5 424.639 192.761 424.324 192 424C191.67 425.32 191.34 426.64 191 428C189.907 420.979 189.885 414.095 189.938 407C189.942 405.844 189.947 404.687 189.951 403.496C189.963 400.664 189.979 397.832 190 395C196.397 395.997 202.657 397.035 208.875 398.875C215.184 400.609 221.501 401.95 227.938 403.125C228.794 403.283 229.65 403.442 230.533 403.605C233.35 404.105 236.172 404.559 239 405C240.106 405.181 241.212 405.362 242.351 405.548C255.093 407.409 267.831 407.397 280.688 407.375C281.864 407.374 283.041 407.374 284.254 407.373C302.168 407.335 319.414 406.67 337 403C338.748 402.639 338.748 402.639 340.531 402.27C350.755 400.109 360.894 397.785 370.837 394.553C373 394 373 394 377 394Z" fill="#B4B7CC"/>
<path d="M409 381C413.623 391.771 417.325 402.581 420 414C420.167 414.71 420.333 415.42 420.505 416.152C424.811 435.558 428.661 471.181 418 489C415.624 490.65 413.421 491.988 410.875 493.312C410.161 493.697 409.448 494.082 408.713 494.478C406.484 495.67 404.244 496.837 402 498C400.988 498.533 400.988 498.533 399.955 499.077C392.344 503.073 384.606 506.716 376.688 510.062C375.964 510.374 375.24 510.685 374.494 511.006C369.358 513.119 369.358 513.119 366 512C366.779 510.567 366.779 510.567 367.574 509.105C369.749 505.087 371.884 501.049 374 497C374.461 496.118 374.923 495.237 375.398 494.328C380.09 484.694 382.926 474.235 386 464C386.21 463.309 386.421 462.617 386.638 461.905C387.921 457.639 389.016 453.343 390 449C390.171 448.265 390.343 447.53 390.519 446.773C395.007 426.822 395.261 406.357 396 386C397.79 385.162 399.582 384.33 401.375 383.5C402.373 383.036 403.37 382.572 404.398 382.094C407 381 407 381 409 381Z" fill="#F9F9FA"/>
<path d="M158 382C162.474 383.419 166.701 385.134 171 387C171.015 387.89 171.029 388.779 171.044 389.696C171.773 429.633 177.426 467.851 196.336 503.652C197.866 506.731 199.007 509.714 200 513C187.52 508.925 175.676 504.01 164 498C163.258 497.619 162.516 497.238 161.751 496.846C159.647 495.743 157.571 494.601 155.5 493.438C154.575 492.947 154.575 492.947 153.63 492.446C149.459 489.996 147.926 487.598 146.546 483.149C138.33 450.838 142.593 413.035 157 383C157.33 382.67 157.66 382.34 158 382Z" fill="#F7F9FA"/>
<path d="M495 132C521.14 157.511 534.137 200.71 539 236C539 237.32 539 238.64 539 240C526.13 240 513.26 240 500 240C499.423 236.886 498.845 233.771 498.25 230.562C497.514 226.706 496.76 222.852 496 219C495.845 218.206 495.69 217.413 495.531 216.595C493.9 208.413 491.768 201.114 488.188 193.562C485.221 187.196 484.081 182.837 486 176C486.267 175.036 486.534 174.072 486.809 173.078C487.472 170.689 488.14 168.301 488.813 165.914C491.668 154.827 493.158 143.292 495 132Z" fill="#FC8847"/>
<path d="M302.938 289.375C299.519 292.43 297.513 292.823 293 293C293.237 297.585 293.177 301.298 294.5 305C295.37 307.433 297.003 310.003 299.125 312.312C304.651 315.556 313.704 316.152 317.305 309.641C319.22 305.719 320.261 302.493 324 300C327.96 299.397 329.523 299.679 332.875 301.938C335.33 305.475 335.743 307.32 335.477 311.535C334.027 319.031 330.097 324.894 324.156 329.594C317.068 334.217 309.308 334.987 301 334C293.56 331.958 288.344 327.344 283 322C282.611 322.447 282.221 322.895 281.82 323.355C276.329 329.289 270.737 333.386 262.563 334.445C253.636 334.734 246.989 333.457 240.188 327.562C234.371 320.749 231.438 316.762 231.621 307.641C232 305 232 305 234.125 301.813C237.513 299.677 239.074 299.248 243 300C246.216 302.205 247.251 304.482 248.438 308.062C250.972 315.249 257.026 316.146 264 314C267.857 311.754 270.504 308.992 272.5 305C273.345 300.604 273.665 296.461 274 292C270.019 292.332 266.818 292.654 263.5 290C250.003 263.006 316.273 267.553 302.938 289.375Z" fill="#381613"/>
<path d="M70 134C70.66 134 71.32 134 72 134C72.1055 134.618 72.2109 135.236 72.3196 135.873C75.1212 156.581 75.1212 156.581 80.6875 176.562C82.093 180.244 82.6207 182.121 82 186C81.3246 187.371 80.6101 188.723 79.875 190.062C71.8846 205.228 69.6616 223.314 67 240C54.79 240 42.58 240 30 240C30 228.735 30 228.735 31.3203 223.277C31.6051 222.088 31.8899 220.899 32.1833 219.673C32.4941 218.44 32.8048 217.208 33.125 215.938C33.2837 215.297 33.4425 214.657 33.606 213.997C36.1494 203.754 38.9777 193.762 43 184C43.2949 183.284 43.5897 182.568 43.8936 181.83C49.9127 167.424 56.8498 153.491 65.4375 140.438C65.8627 139.788 66.288 139.138 66.7261 138.468C67.7609 136.939 68.8735 135.463 70 134Z" fill="#FC8847"/>
<path d="M478 103C478.336 115.044 477.402 126.48 475.562 138.375C475.329 139.958 475.097 141.541 474.865 143.125C474.642 144.633 474.417 146.141 474.191 147.648C474.035 148.694 474.035 148.694 473.876 149.76C473.432 152.62 472.918 155.247 472 158C471.34 158 470.68 158 470 158C468.75 156.423 467.576 154.785 466.438 153.125C457.357 140.314 445.54 127.195 432 119C435.363 115.147 439.04 113.189 443.562 111C444.268 110.653 444.973 110.305 445.699 109.947C451.327 107.221 457.045 104.918 463 103C463.001 102.994 466.751 102.497 470.5 102.5C474.249 102.503 477.999 103.006 478 103Z" fill="#B3B5CE"/>
<path d="M101 103C101.33 103 102.66 103 103 103C103.086 103.893 103.236 103.388 104.883 104.314C105.693 104.633 106.504 104.953 107.34 105.281C108.239 105.649 109.138 106.016 110.064 106.395C111.013 106.759 111.961 107.124 112.937 107.5C114.781 108.236 116.624 108.976 118.465 109.719C119.375 110.084 120.285 110.448 121.222 110.824C125.588 112.672 129.796 114.813 134 117C134 117.66 134 118.32 134 119C132.114 120.527 130.215 121.956 128.25 123.375C117.611 131.336 109.014 140.501 101.156 151.187C99.2451 153.68 97.2784 155.846 95 158C90.7342 139.694 88.5271 121.809 89 103C92.96 103 96.92 103 101 103C101 104.7 101 101.35 101 103Z" fill="#B4B6CF"/>
<path d="M461 104C461.844 106.861 462.065 109.127 461.766 112.09C461.687 112.869 461.609 113.648 461.529 114.45C461.437 115.271 461.345 116.092 461.25 116.938C461.114 118.199 461.114 118.199 460.975 119.486C460.169 126.475 458.831 133.201 457 140C453.198 136.832 449.61 133.638 446.188 130.062C441.908 125.699 437.097 122.342 432 119C435.385 115.11 439.128 113.145 443.688 110.938C444.398 110.588 445.108 110.238 445.84 109.877C450.79 107.478 455.702 105.514 461 104Z" fill="#847180"/>
<path d="M104 104C114.398 107.687 124.238 111.844 134 117C134 117.66 134 118.32 134 119C132.093 120.549 130.176 122 128.188 123.438C122.268 127.827 117.141 132.631 112.047 137.945C111.034 138.962 111.034 138.962 110 140C109.67 140 109.34 140 109 140C108.346 136.251 107.703 132.501 107.062 128.75C106.88 127.706 106.698 126.662 106.51 125.586C105.291 118.404 104.488 111.268 104 104Z" fill="#897188"/>
<path d="M173 436C173.33 436 173.66 436 174 436C174.2 436.92 174.401 437.84 174.607 438.788C179.609 461.58 185.37 482.899 196.336 503.652C197.867 506.731 199.007 509.714 200 513C198.051 512.568 196.116 512.077 194.188 511.562C193.109 511.296 192.03 511.029 190.918 510.754C186.549 508.128 186.23 504.747 185 500C184.525 498.577 184.037 497.159 183.535 495.746C176.751 475.992 172.509 456.998 173 436Z" fill="#AAACC7"/>
<path d="M393 433C393.33 433 393.66 433 394 433C394.711 456.86 389.896 482.093 379.883 503.82C378.812 506.071 378.812 506.071 379 509C377.401 509.699 375.795 510.384 374.188 511.062C373.294 511.445 372.401 511.828 371.48 512.223C369 513 369 513 366 512C366.519 511.045 367.039 510.09 367.574 509.105C369.749 505.087 371.884 501.049 374 497C374.461 496.118 374.923 495.237 375.398 494.328C384.603 475.424 389.426 453.607 393 433Z" fill="#B1ADC2"/>
<path d="M409 381C410.03 383.455 411.049 385.913 412.062 388.375C412.357 389.074 412.652 389.772 412.955 390.492C413.696 392.305 414.354 394.151 415 396C411.956 402.088 400.29 411.71 395 417C395.33 406.77 395.66 396.54 396 386C407 381 407 381 409 381Z" fill="#B0B7CF"/>
<path d="M158 382C162.508 383.429 166.613 385.12 171 387C171 395.25 171.5 403 172 411.5C171.67 410.84 170.34 410.68 170 410C169.423 409.711 168.845 409.423 168.25 409.125C165.507 407.754 163.366 405.942 161 404C160.01 403.34 152.52 396.68 151.5 396C151.5 395.34 155.5 396.68 155.5 396C154.572 395.567 157.072 399.567 156.125 399.125C154 398 153.5 398 151.5 396C152.309 393.853 153.185 391.645 154 389.5C154.452 388.305 155.034 387.231 155.5 386C156.691 383.059 157 383 158 382Z" fill="#B3B7D0"/>
<circle cx="363.5" cy="238.5" r="27.5" fill="#391613"/>
<circle cx="204.5" cy="238.5" r="27.5" fill="#391613"/>
</svg>
